<?xml version="1.0" encoding="UTF-8"?>
<svg version="1.1" xmlns="http://www.w3.org/2000/svg" width="1520" height="216">
<path d="M0 0 C1.09715332 -0.00217529 2.19430664 -0.00435059 3.32470703 -0.0065918 C18.17123412 0.29595917 30.61503348 4.99674676 41.42578125 15.23046875 C48.41830177 22.64527292 51.10816815 30.48380906 50.87109375 40.6640625 C50.03919755 50.46195112 46.65957389 58.60643798 39.62109375 65.53515625 C29.32981006 74.20634519 15.9367642 76.72476067 2.7578125 76.828125 C-0.09935599 76.47228717 -2.657965 75.49455731 -5.375 74.5625 C-5.16247705 79.02929744 -4.93204933 83.49470973 -4.68530273 87.9597168 C-4.60392783 89.47736677 -4.52737015 90.99528329 -4.45581055 92.51342773 C-4.35183364 94.70124523 -4.23031333 96.88750471 -4.10546875 99.07421875 C-4.03739014 100.38865967 -3.96931152 101.70310059 -3.89916992 103.05737305 C-2.96905083 109.27708415 -0.16252838 111.81011289 4.625 115.5625 C4.625 116.2225 4.625 116.8825 4.625 117.5625 C0.44877651 118.45105819 -2.48813949 118.68057041 -6.625 117.5625 C-14.46187698 115.6132938 -21.76357219 116.67101244 -28.81640625 120.52734375 C-30.54718261 121.60280313 -30.54718261 121.60280313 -32.375 123.5625 C-35.5 123.6875 -35.5 123.6875 -38.375 123.5625 C-37.79356642 119.72151452 -36.01398393 117.70404195 -33.5 114.8125 C-26.30155207 106.05589071 -25.22245115 97.1488426 -25.20703125 86.1171875 C-25.20074707 84.74394318 -25.20074707 84.74394318 -25.19433594 83.34295654 C-25.18456011 80.37442736 -25.18454537 77.40604262 -25.1875 74.4375 C-25.18777191 73.42983582 -25.18804382 72.42217163 -25.18832397 71.38397217 C-25.20377533 58.96479398 -25.34483841 46.58118606 -26.1875 34.1875 C-26.25751221 33.08647949 -26.32752441 31.98545898 -26.3996582 30.85107422 C-26.91940119 24.35195502 -27.56274067 18.37475933 -32.375 13.5625 C-35.04449409 13.31934344 -35.04449409 13.31934344 -38 13.4375 C-39.00289062 13.45554687 -40.00578125 13.47359375 -41.0390625 13.4921875 C-42.19535156 13.52699219 -42.19535156 13.52699219 -43.375 13.5625 C-43.705 12.2425 -44.035 10.9225 -44.375 9.5625 C-32.60031615 1.07555255 -13.96901748 0.00291629 0 0 Z M-8.375 9.5625 C-9.42647314 15.39604343 -9.48529012 21.08538636 -9.359375 26.99609375 C-9.34287903 27.87346695 -9.32638306 28.75084015 -9.30938721 29.65480042 C-9.27211066 31.49950773 -9.2315951 33.34415218 -9.18798828 35.1887207 C-9.12526049 37.988374 -9.08375927 40.7878429 -9.04296875 43.58789062 C-9.0039091 45.39065375 -8.96358612 47.19339003 -8.921875 48.99609375 C-8.91234802 49.8213707 -8.90282104 50.64664764 -8.89300537 51.49693298 C-8.72937192 57.14296695 -7.88595133 62.44318019 -5.375 67.5625 C-1.06241192 70.87216062 3.34961962 71.24409782 8.625 70.5625 C15.70354871 69.12901054 22.74192865 66.89589688 26.90625 60.63671875 C31.36282355 52.18514533 31.94192646 42.64499918 29.5 33.4375 C26.18358696 23.71963852 20.35088705 17.01962811 11.25390625 12.34375 C5.33575655 9.62276163 -2.04043571 6.39521786 -8.375 9.5625 Z " fill="#FFFFFF" transform="translate(86.375,71.4375)"/>
<path d="M0 0 C2.51240555 0.54663217 3.98942086 0.99253237 6.125 2.5 C12.45765431 5.80399355 19.14715331 5.027927 26 4 C40.38380134 2.91475511 40.38380134 2.91475511 46.3828125 7.5234375 C46.91648437 8.01070312 47.45015625 8.49796875 48 9 C48.51304687 9.44601563 49.02609375 9.89203125 49.5546875 10.3515625 C56.13589856 17.00713753 54.27905257 29.59360111 54.51757812 38.296875 C54.75151023 44.88228443 55.04756172 51.66606677 57 58 C59.47753497 59.97296178 59.47753497 59.97296178 62 61 C62 62.32 62 63.64 62 65 C52.43 65 42.86 65 33 65 C33 63.68 33 62.36 33 61 C32.236875 61.474375 31.47375 61.94875 30.6875 62.4375 C22.9335212 66.94562721 11.32313838 66.05698681 2.734375 64.3515625 C-2.82864858 62.35501723 -7.17424713 59.27750903 -10 54 C-11.71684315 48.5763364 -11.23185241 43.92784213 -8.9296875 38.7734375 C-1.47182037 24.54708592 20.69262831 19.61382 35 15 C34.62095792 11.70924004 34.62095792 11.70924004 33 9 C27.36380169 8.69236307 23.14599883 9.29775942 17.75390625 11.15234375 C17.0984935 11.37193253 16.44308075 11.5915213 15.76780701 11.81776428 C13.69533961 12.51305809 11.62862988 13.223614 9.5625 13.9375 C-6.83368898 19.57495391 -6.83368898 19.57495391 -15 20 C-15.04125 20.886875 -15.0825 21.77375 -15.125 22.6875 C-16.04089463 26.15481538 -17.1007397 27.91387909 -19.98046875 30.0859375 C-24.0576567 31.93131851 -28.65880225 31.81780805 -33 31 C-34.83203125 29.71875 -34.83203125 29.71875 -36 28 C-36 26.68 -36 25.36 -36 24 C-34.68 23.34 -33.36 22.68 -32 22 C-32.495 18.535 -32.495 18.535 -33 15 C-36.68156906 13.33452828 -38.34118604 12.78461851 -42.25 14.0625 C-45.45360387 16.31958455 -45.90093442 17.30733025 -47 21 C-47.30659554 24.51559291 -47.30659554 24.51559291 -47.265625 28.34765625 C-47.26753845 29.04136826 -47.2694519 29.73508026 -47.27142334 30.44981384 C-47.27277877 31.90966151 -47.26912735 33.36952149 -47.26074219 34.8293457 C-47.25001668 37.05903224 -47.2606671 39.28791616 -47.2734375 41.51757812 C-47.27211611 42.94010594 -47.26955414 44.36263325 -47.265625 45.78515625 C-47.26336914 47.07301025 -47.26111328 48.36086426 -47.25878906 49.68774414 C-47.01737861 52.77757014 -46.69734012 54.45664785 -45 57 C-43.2283164 58.41494188 -41.38434848 59.55668105 -39.4609375 60.75390625 C-38.73777344 61.37072266 -38.73777344 61.37072266 -38 62 C-38 62.99 -38 63.98 -38 65 C-48.56 65 -59.12 65 -70 65 C-70 61 -70 61 -67.5625 58.4375 C-66.716875 57.633125 -65.87125 56.82875 -65 56 C-62.02699873 47.0809962 -64.03740021 35.11622416 -64.375 25.8125 C-64.40577637 24.80864258 -64.43655273 23.80478516 -64.46826172 22.77050781 C-64.50709473 21.82143555 -64.54592773 20.87236328 -64.5859375 19.89453125 C-64.6173584 19.04737549 -64.6487793 18.20021973 -64.68115234 17.32739258 C-65.02616281 14.80902751 -65.63887381 13.14075669 -67 11 C-69.05000871 10.19471111 -69.05000871 10.19471111 -71 10 C-71 8.02 -71 6.04 -71 4 C-70.16750732 4.03552979 -69.33501465 4.07105957 -68.47729492 4.10766602 C-65.38566042 4.23696079 -62.29387682 4.36125837 -59.2019043 4.48217773 C-57.2067109 4.56173399 -55.21174989 4.64705005 -53.21679688 4.73242188 C-51.33637695 4.80493164 -51.33637695 4.80493164 -49.41796875 4.87890625 C-48.26063232 4.9260376 -47.1032959 4.97316895 -45.91088867 5.02172852 C-42.93323314 5.14948752 -42.93323314 5.14948752 -40 4 C-37.56637528 3.82758292 -35.12679404 3.73334232 -32.6875 3.6875 C-30.74423828 3.63142578 -30.74423828 3.63142578 -28.76171875 3.57421875 C-24.44253506 4.06309832 -22.38354899 5.34544745 -19 8 C-18.4225 8.433125 -17.845 8.86625 -17.25 9.3125 C-15.30387351 11.93977076 -14.76975253 14.86177814 -14 18 C-8.64407672 12.30568506 -3.8980525 6.79015597 0 0 Z M16.30859375 25.22265625 C11.99991821 31.07473796 7.70287003 38.57175086 8 46 C10.61631564 51.82724846 15.51857257 55.03732707 21 58 C24.13681976 58.98935024 26.97127621 59.1056411 30.25 59.0625 C31.14203125 59.05347656 32.0340625 59.04445312 32.953125 59.03515625 C33.96632813 59.01775391 33.96632813 59.01775391 35 59 C40.29919451 38.9557527 40.29919451 38.9557527 38 19 C30.86626984 18.75130115 21.61600338 20.04123854 16.30859375 25.22265625 Z " fill="#FFFFFF" transform="translate(288,108)"/>
<path d="M0 0 C0.66 1.98 1.32 3.96 2 6 C2.7425 5.38125 3.485 4.7625 4.25 4.125 C9.72344053 -0.10447678 13.850184 -0.53052585 20.73046875 -0.46875 C25.01716106 0.14582954 27.24555531 1.73291735 30.31640625 4.6875 C32.16998353 6.40988466 32.16998353 6.40988466 36 6 C37.86179901 4.97185012 37.86179901 4.97185012 39.5625 3.5625 C43.76288029 0.2789065 47.07249349 -0.17719671 52.375 -0.25 C53.49648438 -0.27578125 54.61796875 -0.3015625 55.7734375 -0.328125 C61.25130525 0.2289463 64.26322699 2.92695542 67.75 7 C68.63945312 8.0209375 68.63945312 8.0209375 69.546875 9.0625 C72.41054681 12.88072908 72.3671141 16.37436229 72 21 C68.28978464 34.11985794 59.45689336 44.54310664 50 54 C56.50760989 52.28747108 63.21690682 48.78309318 68 44 C68.99 44 69.98 44 71 44 C71.34087334 45.54001707 71.67230953 47.08212406 72 48.625 C72.2784375 49.91277344 72.2784375 49.91277344 72.5625 51.2265625 C73 54 73 54 73 60 C61.12 60 49.24 60 37 60 C41.48590806 53.27113791 41.48590806 53.27113791 43.91015625 51.03515625 C44.42513672 50.54466797 44.94011719 50.05417969 45.47070312 49.54882812 C46.53204698 48.55780644 47.59716763 47.57081418 48.66601562 46.58789062 C54.53089637 40.97320555 56.54101456 34.79111517 57.05859375 26.78515625 C56.9672783 22.44462863 56.1694512 18.78081895 54 15 C50.27357677 11.68762379 46.99202382 10.21704451 42 10 C39.77769331 10.50431987 39.77769331 10.50431987 38 12 C37.47478789 14.70248007 37.47478789 14.70248007 37.5625 17.9375 C37.15496652 27.35928592 34.6931443 36.00249759 32 45 C31.70222656 46.06347656 31.40445313 47.12695312 31.09765625 48.22265625 C29.15366484 54.1621323 26.36168167 56.82902199 21.0234375 60.0390625 C19 61 19 61 17 61 C17.19335938 60.41734375 17.38671875 59.8346875 17.5859375 59.234375 C20.70728863 49.40675462 22.17577791 39.91986017 22.3125 29.625 C22.33014404 28.86380859 22.34778809 28.10261719 22.3659668 27.31835938 C22.36004534 22.43046445 21.47755576 19.32755122 19 15 C19 14.34 19 13.68 19 13 C17.1116935 12.41272764 15.21384746 11.85606978 13.3125 11.3125 C12.25675781 10.99925781 11.20101562 10.68601562 10.11328125 10.36328125 C6.3089154 9.91935901 4.9651271 10.66529632 2 13 C0.41769192 16.16461615 0.75842187 19.59079367 0.68359375 23.0703125 C0.66281265 23.86654022 0.64203156 24.66276794 0.62062073 25.48312378 C0.55515851 28.03032685 0.49625585 30.57763425 0.4375 33.125 C0.3943116 34.85027127 0.35069721 36.57553193 0.30664062 38.30078125 C0.19948055 42.53374685 0.09820377 46.76681753 0 51 C0.77730469 51.30164063 1.55460937 51.60328125 2.35546875 51.9140625 C5.02423323 53.00995101 6.92179308 53.99876371 9 56 C9 57.32 9 58.64 9 60 C7.865625 59.835 6.73125 59.67 5.5625 59.5 C0.52346582 58.8734771 -4.97071197 58.21214081 -9.9375 59.50390625 C-12.42920931 60.10323785 -14.69046194 60.09617813 -17.25 60.0625 C-18.14203125 60.05347656 -19.0340625 60.04445312 -19.953125 60.03515625 C-20.62859375 60.02355469 -21.3040625 60.01195312 -22 60 C-20.74381926 56.23145777 -19.33985294 55.92041544 -16 54 C-14.28662021 50.57324041 -14.60395444 46.65218285 -14.4375 42.875 C-14.3950415 41.95952393 -14.35258301 41.04404785 -14.30883789 40.10083008 C-13.84757317 29.07038501 -13.90632738 18.03751652 -14 7 C-16.97 6.505 -16.97 6.505 -20 6 C-20.33 4.35 -20.66 2.7 -21 1 C-13.97360585 0.25194283 -7.06608191 -0.13794954 0 0 Z " fill="#FFFFFF" transform="translate(375,113)"/>
<path d="M0 0 C2 2 2 2 2 6 C2.47050781 5.65066406 2.94101562 5.30132812 3.42578125 4.94140625 C4.04839844 4.48636719 4.67101562 4.03132813 5.3125 3.5625 C5.92738281 3.11003906 6.54226563 2.65757813 7.17578125 2.19140625 C12.14816918 -1.0560848 18.31121992 -0.78247161 24 0 C26.67265983 1.33438475 28.83682103 2.8184482 31.16015625 4.6875 C33.03037218 6.2903738 33.03037218 6.2903738 36 6 C37.46141844 5.03529156 38.8954861 4.02882354 40.3125 3 C46.67398152 -0.94206344 52.70690743 -1.05093011 60 0 C64.93852217 2.25265923 67.80894426 5.71486801 71 10 C73.41759604 17.25278812 72.38648022 22.95267305 69.125 29.8125 C65.29399914 37.20187229 60.23764957 43.57197552 55 50 C53.99230567 51.32752775 52.98866506 52.65824027 52 54 C53.89957501 53.09111244 55.79450786 52.17251969 57.6875 51.25 C58.74324219 50.73953125 59.79898438 50.2290625 60.88671875 49.703125 C64.06259531 48.09723841 64.06259531 48.09723841 66.70703125 45.734375 C67.46371094 45.16203125 68.22039062 44.5896875 69 44 C70.485 44.495 70.485 44.495 72 45 C72.99 52.425 72.99 52.425 74 60 C62.12 60 50.24 60 38 60 C40.07620065 55.8475987 42.56601254 53.36221815 45.875 50.25 C51.7196273 44.59716978 56.55568421 38.84446157 57.203125 30.328125 C57.33973988 21.71844717 57.33973988 21.71844717 54 14 C50.19858237 11.46572158 46.55681602 10.29718365 42 10 C39.85283963 10.93783568 39.85283963 10.93783568 38 12 C38.0825 13.27875 38.165 14.5575 38.25 15.875 C38.25 27.86978153 34.9917772 46.02052209 27.5625 55.5625 C25.12355164 57.88247527 23.07317003 59.62516078 20 61 C19.01 60.67 18.02 60.34 17 60 C17.26554688 59.41476563 17.53109375 58.82953125 17.8046875 58.2265625 C22.64903852 46.45160709 24.70846481 31.55191529 22 19 C20.10328453 14.49530077 18.08380575 12.72489356 13.6875 10.875 C10.20024656 9.88934655 8.22800747 9.87861157 5 11.5625 C1.72493883 14.21575087 1.72493883 14.21575087 1 18 C0.91094524 19.43411771 0.86939493 20.87171537 0.8671875 22.30859375 C0.86468994 23.13222412 0.86219238 23.95585449 0.85961914 24.80444336 C0.88046201 28.37254331 0.9117027 31.94007274 0.96728516 35.5078125 C0.99584261 37.68329353 0.99105654 39.85573745 0.98046875 42.03125 C0.90992479 47.88062342 0.90992479 47.88062342 3.625 52.7578125 C5.36056161 53.92651729 7.17722043 54.97261515 9 56 C9 57.32 9 58.64 9 60 C7.865625 59.835 6.73125 59.67 5.5625 59.5 C0.52346582 58.8734771 -4.97071197 58.21214081 -9.9375 59.50390625 C-12.42920931 60.10323785 -14.69046194 60.09617813 -17.25 60.0625 C-18.14203125 60.05347656 -19.0340625 60.04445312 -19.953125 60.03515625 C-20.62859375 60.02355469 -21.3040625 60.01195312 -22 60 C-22 59.34 -22 58.68 -22 58 C-20.27906524 56.67896914 -18.46701945 55.5652041 -16.62890625 54.4140625 C-14.20496585 52.30982647 -14.07981223 50.04697262 -13.84178162 46.92449951 C-13.82623734 46.18725647 -13.81069305 45.45001343 -13.79467773 44.69042969 C-13.77473251 43.84986023 -13.75478729 43.00929077 -13.73423767 42.14324951 C-13.71752518 41.24519592 -13.70081268 40.34714233 -13.68359375 39.421875 C-13.66281265 38.4953009 -13.64203156 37.56872681 -13.62062073 36.61407471 C-13.55533039 33.65945728 -13.49633569 30.70475232 -13.4375 27.75 C-13.39429527 25.74478268 -13.35068035 23.73957415 -13.30664062 21.734375 C-13.19967001 16.82300596 -13.09834482 11.91154903 -13 7 C-15.31 6.67 -17.62 6.34 -20 6 C-20.5625 4.0625 -20.5625 4.0625 -21 2 C-17.31375685 -1.68624315 -5.01097781 -0.23861799 0 0 Z " fill="#FFFFFF" transform="translate(722,113)"/>
<path d="M0 0 C4.52984033 0.4768253 4.52984033 0.4768253 6.31640625 2.46484375 C9.87805682 5.71247409 15.36651494 5.69978642 20 6 C22.61188724 5.68581646 25.04946439 5.15990041 27.59765625 4.515625 C31.42798774 3.69350507 35.09606381 3.87406657 39 4 C38.625757 6.44914753 38.35590406 7.68557647 36.46875 9.3527832 C35.49421875 9.94579224 35.49421875 9.94579224 34.5 10.55078125 C33.78166992 10.99848877 33.06333984 11.44619629 32.32324219 11.9074707 C31.55657227 12.37113037 30.78990234 12.83479004 30 13.3125 C28.44090814 14.28879774 26.88359873 15.26794797 25.328125 16.25 C24.57853516 16.72179687 23.82894531 17.19359375 23.05664062 17.6796875 C16.0462266 22.18020021 9.48083308 27.03833383 5.6875 34.625 C4.54972175 40.21045684 3.59011183 46.55056487 5.8046875 51.96875 C9.00663413 56.29689855 13.93766168 58.60231737 19 60 C25.64094382 60.31623542 29.42614465 57.81980835 34.80078125 54.08203125 C38.6461089 50.4416056 40.13807499 46.68670851 40.43237305 41.46337891 C40.47348016 39.71805711 40.4991527 37.9723231 40.51171875 36.2265625 C40.52966995 35.3028183 40.54762115 34.3790741 40.56611633 33.42733765 C40.62005424 30.49327074 40.654062 27.55936499 40.6875 24.625 C40.72068766 22.62888391 40.75517865 20.63278903 40.79101562 18.63671875 C40.87577126 13.75792907 40.94266117 8.87918581 41 4 C48.6484375 3.9296875 48.6484375 3.9296875 51.8125 4.5625 C56.5973269 5.21924095 61.22188291 4.5526292 66 4 C66 4.99 66 5.98 66 7 C59.25 11 59.25 11 57 11 C55.87753524 15.50665402 55.83858642 19.93979161 55.83203125 24.5546875 C55.82870285 25.37446075 55.82537445 26.19423401 55.82194519 27.03884888 C55.81689607 28.76856935 55.81453624 30.49829951 55.81469727 32.22802734 C55.8125131 34.8592146 55.79434252 37.48998069 55.77539062 40.12109375 C55.77245572 41.80729024 55.77047157 43.49348871 55.76953125 45.1796875 C55.75875298 46.34877151 55.75875298 46.34877151 55.74775696 47.54147339 C55.767814 52.39251899 56.33024492 56.42667522 58 61 C59.87587236 62.44941163 59.87587236 62.44941163 62.125 62.9375 C62.84945312 63.15277344 63.57390625 63.36804688 64.3203125 63.58984375 C64.87460937 63.72519531 65.42890625 63.86054688 66 64 C66 64.33 66 64.66 66 65 C56.43 65 46.86 65 37 65 C37.66 63.68 38.32 62.36 39 61 C39.67966676 59.33859237 40.34938905 57.67299959 41 56 C40.59910156 56.38671875 40.19820312 56.7734375 39.78515625 57.171875 C30.41193917 65.75867704 20.88872972 67.19657934 8.5625 67.3125 C7.53833984 67.34150391 6.51417969 67.37050781 5.45898438 67.40039062 C-0.58632642 67.45125732 -4.25365139 67.13535868 -9 63 C-9.62648438 62.505 -10.25296875 62.01 -10.8984375 61.5 C-14.38651943 57.95655169 -15.46341214 55.17505548 -15.6875 50.1875 C-15.16481006 40.88361912 -11.00572475 34.13104105 -4.2890625 27.8671875 C-0.12386487 24.46963722 4.37278739 21.71902085 9 19 C10.11246094 18.34257813 11.22492187 17.68515625 12.37109375 17.0078125 C15.23988311 15.32505973 18.11574142 13.65605772 21 12 C12.32228158 12.99580375 4.2974323 15.76979774 -3.9128418 18.61157227 C-5.24182495 19.07067993 -5.24182495 19.07067993 -6.59765625 19.5390625 C-7.79660522 19.95986084 -7.79660522 19.95986084 -9.01977539 20.38916016 C-11 21 -11 21 -13 21 C-11.966964 18.67566899 -10.90311905 16.88581888 -9.25 14.9375 C-6.45352705 11.28654921 -4.41345809 7.38801684 -2.26953125 3.328125 C-1 1 -1 1 0 0 Z " fill="#FFFFFF" transform="translate(630,108)"/>
<path d="M0 0 C2.49903946 0.44625705 3.92124277 0.93876191 5.94921875 2.515625 C11.28597204 6.37841786 18.89040687 4.91643897 25 4 C40.654077 2.98764053 40.654077 2.98764053 47 8 C52.18491906 12.98950754 53.1448156 17.48525254 53.46484375 24.44921875 C53.54342159 25.95248433 53.62220427 27.45573922 53.70117188 28.95898438 C53.82028373 31.31749702 53.93695481 33.6760796 54.04956055 36.03491211 C54.16025987 38.31925622 54.28077477 40.60293075 54.40234375 42.88671875 C54.43263168 43.5797258 54.46291962 44.27273285 54.49412537 44.98674011 C54.76142691 49.87463934 55.56616074 54.30915525 57 59 C58.9837767 60.28436734 58.9837767 60.28436734 61 61 C61.495 62.98 61.495 62.98 62 65 C52.1 65 42.2 65 32 65 C32 64.01 32 63.02 32 62 C30.55753906 62.73089844 30.55753906 62.73089844 29.0859375 63.4765625 C24.59340418 65.39418985 20.45302071 65.44441244 15.625 65.375 C14.82578125 65.38660156 14.0265625 65.39820313 13.203125 65.41015625 C4.44121234 65.36762269 -2.74568512 63.25431488 -9 57 C-11.9071676 52.29840825 -11.71243 47.35064612 -11 42 C-8.28954258 34.92135003 -2.73715266 29.85861059 3.9296875 26.54296875 C9.18175465 24.24443128 14.49371536 22.17756828 19.875 20.20703125 C20.69444092 19.9020874 21.51388184 19.59714355 22.3581543 19.28295898 C23.97386976 18.6852423 25.59513275 18.10227997 27.22192383 17.53540039 C29.71470754 16.65666352 29.71470754 16.65666352 33 15 C33.86995153 13.04949559 33.86995153 13.04949559 34 11 C33.10445408 9.00426838 33.10445408 9.00426838 31 8 C27.81740192 8.27462731 27.81740192 8.27462731 24.1875 9.375 C23.50042969 9.55909424 22.81335938 9.74318848 22.10546875 9.93286133 C14.90298461 11.91338596 7.79398955 14.24249063 0.71557617 16.62451172 C-4.56364504 18.36936755 -9.45681036 19.51432334 -15 20 C-13.53594289 16.67396257 -11.65384804 14.34247887 -9.1875 11.6875 C-5.79768216 7.95808293 -2.83450685 4.16318193 0 0 Z M14.375 27.625 C10.59598298 32.44355244 8.42507263 38.2370279 7.5 44.25 C8.18335997 48.00847984 9.21361383 50.43150659 12 53 C19.00373283 57.53867279 25.64425333 59.96302767 34 60 C34.6512183 57.33454836 35.29607161 54.66780944 35.9375 52 C36.11990234 51.25621094 36.30230469 50.51242188 36.49023438 49.74609375 C38.20608727 42.57070892 39.14359426 35.59000777 39.1875 28.1875 C39.20876953 26.53814453 39.20876953 26.53814453 39.23046875 24.85546875 C39.21650236 21.79829254 39.21650236 21.79829254 37 19 C28.31825534 17.68458414 20.32875949 21.67124051 14.375 27.625 Z " fill="#FFFFFF" transform="translate(154,108)"/>
<path d="M0 0 C0.37669885 7.40841077 0.37669885 7.40841077 -1.44441223 10.26838684 C-6.27930702 18.75846532 -5.26215595 30.42108687 -5.08203125 39.89453125 C-5.06412033 41.16673019 -5.04620941 42.43892914 -5.02775574 43.74967957 C-4.98686062 46.41631756 -4.9414479 49.08240377 -4.88842773 51.7487793 C-4.82176953 55.14528082 -4.77831484 58.54163637 -4.74116993 61.93857288 C-4.70163548 65.21579227 -4.6407084 68.4926073 -4.58203125 71.76953125 C-4.56936722 72.97801224 -4.55670319 74.18649323 -4.5436554 75.43159485 C-4.31962685 85.14956903 -3.15314704 91.04018126 4 98 C4 99.32 4 100.64 4 102 C-8.54 102 -21.08 102 -34 102 C-34 97 -34 97 -32.625 95.1875 C-31 94 -31 94 -29 94 C-25.663344 85.10225067 -25.85131806 76.2326124 -25.8671875 66.85546875 C-25.86623077 65.60872879 -25.86527405 64.36198883 -25.86428833 63.07746887 C-25.86343743 59.78579936 -25.86743757 56.49417781 -25.87304688 53.20251465 C-25.87565588 50.51083988 -25.87083485 47.81919838 -25.86605644 45.12752819 C-25.86157816 41.91183884 -25.86471033 38.69615914 -25.8671875 35.48046875 C-25.86415115 33.67113106 -25.86415115 33.67113106 -25.86105347 31.82524109 C-25.86578171 30.15253899 -25.86578171 30.15253899 -25.87060547 28.44604492 C-25.87140106 27.46423752 -25.87219666 26.48243011 -25.87301636 25.47087097 C-25.8966522 22.86484294 -25.8966522 22.86484294 -27 20 C-30.3 19.67 -33.6 19.34 -37 19 C-37 17.35 -37 15.7 -37 14 C-32.54256494 11.82782378 -28.07692879 9.67392254 -23.6027832 7.53637695 C-22.08249809 6.80694477 -20.56455752 6.07260475 -19.04907227 5.33325195 C-16.86815055 4.27031174 -14.67936 3.22540383 -12.48828125 2.18359375 C-11.81412674 1.85032578 -11.13997223 1.5170578 -10.44538879 1.1736908 C-6.57143002 -0.64375544 -4.11529484 -1.41560605 0 0 Z " fill="#FFFFFF" transform="translate(608,71)"/>
<path d="M0 0 C6.12571213 4.84892435 10.44882322 9.66762275 12.66796875 17.3203125 C12.94227296 19.77106327 12.87840424 21.84769552 12.66796875 24.3203125 C9.4419333 25.93333023 5.92086837 25.44084849 2.37890625 25.41796875 C1.1512706 25.41584633 1.1512706 25.41584633 -0.10116577 25.41368103 C-2.7198245 25.4080754 -5.33839829 25.39552198 -7.95703125 25.3828125 C-9.73046752 25.37779822 -11.50390512 25.37323519 -13.27734375 25.36914062 C-17.62893907 25.35810414 -21.98047075 25.34083575 -26.33203125 25.3203125 C-25.88901963 27.22832162 -25.43667183 29.13416438 -24.98046875 31.0390625 C-24.72958496 32.10060547 -24.47870117 33.16214844 -24.22021484 34.25585938 C-22.38619888 40.58366816 -19.00511128 45.8391043 -13.33203125 49.3203125 C-6.57816614 52.9810209 -1.59067954 52.15521545 5.65234375 50.08203125 C8.47511659 49.36902516 10.77574392 49.17570126 13.66796875 49.3203125 C10.78778948 54.50463518 6.78016924 55.95945363 1.36328125 57.58984375 C-2.99116252 58.45060589 -7.15155085 58.75589739 -11.58203125 58.8203125 C-12.69795654 58.84798706 -12.69795654 58.84798706 -13.83642578 58.8762207 C-22.69471846 58.7768772 -28.99663407 54.45386882 -35.27734375 48.48828125 C-41.87567826 41.52616024 -43.00695406 35.43629287 -42.85620117 26.06176758 C-42.46125489 17.33390866 -40.37294012 9.18731272 -34.12890625 2.7578125 C-25.57228789 -4.08748219 -9.5460586 -6.02687144 0 0 Z M-22.00390625 7.09375 C-25.09951401 12.28344536 -26.58535572 15.05369017 -25.33203125 21.3203125 C-17.74203125 21.6503125 -10.15203125 21.9803125 -2.33203125 22.3203125 C-2.33203125 13.42957735 -2.42545761 11.58432438 -7.33203125 5.3203125 C-7.97140625 4.4953125 -8.61078125 3.6703125 -9.26953125 2.8203125 C-11.32123772 1.1363392 -11.32123772 1.1363392 -14.20703125 0.5703125 C-18.4313973 1.58416035 -19.63998281 3.57274824 -22.00390625 7.09375 Z " fill="#FFFFFF" transform="translate(494.33203125,114.6796875)"/>
<path d="M0 0 C1.7015625 0.433125 1.7015625 0.433125 3.4375 0.875 C4.4275 0.215 5.4175 -0.445 6.4375 -1.125 C8.4175 -1.125 10.3975 -1.125 12.4375 -1.125 C12.4375 6.135 12.4375 13.395 12.4375 20.875 C10.7875 20.875 9.1375 20.875 7.4375 20.875 C7.22996094 20.28332031 7.02242187 19.69164062 6.80859375 19.08203125 C4.5268361 13.22965702 2.25050178 9.5333177 -3.5625 6.875 C-8.21915903 5.2735816 -12.0352541 4.52920848 -16.875 5.625 C-21.63572345 9.61072196 -24.43570711 15.78112011 -25.5625 21.875 C-26.35970695 31.63751789 -25.55904714 39.01433456 -19.25 46.6875 C-13.36223996 51.47986283 -8.25818084 54.22304587 -0.5625 53.875 C3.89512758 52.90979469 7.77354373 51.21927362 11.8125 49.125 C14.4375 47.875 14.4375 47.875 17.4375 48.875 C16.37895502 51.90598905 15.50894429 52.83110545 12.72265625 54.54296875 C11.65917969 55.04441406 10.59570312 55.54585937 9.5 56.0625 C8.43910156 56.57167969 7.37820313 57.08085937 6.28515625 57.60546875 C-1.89499182 61.25231117 -13.46660825 61.43645557 -22 58.4375 C-31.29666437 53.91608474 -38.10166804 46.59752327 -41.5625 36.875 C-43.63310474 28.14888001 -42.96705428 20.79004979 -38.5625 12.875 C-30.15538206 1.02541315 -13.71463866 -3.95124348 0 0 Z " fill="#FFFFFF" transform="translate(551.5625,113.125)"/>
</svg>
