<?xml version="1.0" encoding="UTF-8"?>
<svg version="1.1" xmlns="http://www.w3.org/2000/svg" width="1230" height="172">
<path d="M0 0 C3.29971522 2.84975405 5.36758943 5.73131325 7.75 9.375 C8.96693876 6.94112247 9.06959896 4.95661154 9.3125 2.25 C9.39628906 1.33992188 9.48007813 0.42984375 9.56640625 -0.5078125 C9.65728516 -1.55582031 9.65728516 -1.55582031 9.75 -2.625 C11.07 -2.625 12.39 -2.625 13.75 -2.625 C14.245 0.84 14.245 0.84 14.75 4.375 C15.72839844 3.59962891 15.72839844 3.59962891 16.7265625 2.80859375 C17.60054687 2.14988281 18.47453125 1.49117187 19.375 0.8125 C20.23351562 0.15121094 21.09203125 -0.51007812 21.9765625 -1.19140625 C24.75 -2.625 24.75 -2.625 27.703125 -2.66796875 C31.55458383 -1.34958477 34.0232385 0.83158656 36.875 3.625 C37.38675781 4.10324219 37.89851563 4.58148438 38.42578125 5.07421875 C48.31436256 14.45438971 49.27291958 22.79010548 49.65820312 35.90820312 C49.68019775 36.89957275 49.70219238 37.89094238 49.72485352 38.91235352 C49.78295408 40.91771301 49.87149805 42.92243736 49.99145508 44.92504883 C50.9417178 61.03698589 50.9417178 61.03698589 47.28729248 66.60272217 C42.67354679 71.79266134 36.76324378 77.10102621 29.75 78.375 C27.82714844 78.02954102 27.82714844 78.02954102 25.859375 77.37890625 C25.21967773 77.17338135 24.57998047 76.96785645 23.92089844 76.75610352 C23.12200195 76.48596436 22.32310547 76.2158252 21.5 75.9375 C17.66375 74.6690625 17.66375 74.6690625 13.75 73.375 C13.75 79.645 13.75 85.915 13.75 92.375 C6.82 92.375 -0.11 92.375 -7.25 92.375 C-7.25 85.445 -7.25 78.515 -7.25 71.375 C-9.580625 71.99375 -11.91125 72.6125 -14.3125 73.25 C-15.03187744 73.44062012 -15.75125488 73.63124023 -16.49243164 73.82763672 C-20.75924621 74.96305217 -25.00791715 76.1503675 -29.25 77.375 C-29.58 76.715 -29.91 76.055 -30.25 75.375 C-24.73841771 68.43385106 -18.86240496 63.08175585 -10.25 60.375 C-9.26 60.375 -8.27 60.375 -7.25 60.375 C-10.12155005 48.08275066 -15.68158461 42.05858286 -26.25 35.375 C-23.12145115 32.01077892 -20.14068033 29.5558371 -16.18554688 27.1418457 C-10.85987859 24.03228663 -10.85987859 24.03228663 -7.30078125 19.2265625 C-7.19166605 14.84516751 -8.92468396 10.99215829 -11.25 7.375 C-14.7986135 5.00925766 -15.8264525 5.26634735 -19.9375 5.75 C-20.93136719 5.86085938 -21.92523438 5.97171875 -22.94921875 6.0859375 C-23.70847656 6.18132812 -24.46773437 6.27671875 -25.25 6.375 C-24.98828125 4.51171875 -24.98828125 4.51171875 -24.25 2.375 C-22.54296875 1.14453125 -22.54296875 1.14453125 -20.4375 0.1875 C-19.75042969 -0.13605469 -19.06335937 -0.45960937 -18.35546875 -0.79296875 C-11.99485931 -3.30653055 -6.1485145 -3.07425725 0 0 Z M15.75 9.375 C12.83072255 12.29427745 13.38191168 15.34489813 13.375 19.25 C13.35050781 19.97058594 13.32601562 20.69117188 13.30078125 21.43359375 C13.28148917 24.92546091 13.45361942 26.97078596 15.54296875 29.8203125 C18.79236194 32.10926558 21.86290901 32.69383643 25.75 32.375 C28.91184097 31.32105301 31.81943549 29.95560539 34.75 28.375 C34.45007144 22.37642883 31.78157643 18.59731768 27.75 14.375 C23.6947641 11.14482169 21.01761962 9.375 15.75 9.375 Z M7.75 15.375 C7.75 40.125 7.75 64.875 7.75 90.375 C8.08 90.375 8.41 90.375 8.75 90.375 C8.75 65.625 8.75 40.875 8.75 15.375 C8.42 15.375 8.09 15.375 7.75 15.375 Z M-13.25 30.375 C-13.25 31.035 -13.25 31.695 -13.25 32.375 C-10.61315253 34.77320305 -10.61315253 34.77320305 -7.25 35.375 C-7.25 32.735 -7.25 30.095 -7.25 27.375 C-10.04908133 27.375 -11.17722373 28.5785939 -13.25 30.375 Z M13.75 33.375 C13.75 37.665 13.75 41.955 13.75 46.375 C15.73 46.045 17.71 45.715 19.75 45.375 C25.30989352 45.11024317 29.47992291 45.61830764 34.75 47.375 C34.75 42.755 34.75 38.135 34.75 33.375 C33.615625 33.725625 32.48125 34.07625 31.3125 34.4375 C25.21634531 35.97507365 19.75659118 34.87664779 13.75 33.375 Z M13.75 51.375 C13.52270111 53.59080276 13.52270111 53.59080276 13.6328125 56.00390625 C13.64973145 56.82060791 13.66665039 57.63730957 13.68408203 58.47875977 C13.70583496 59.10451904 13.72758789 59.73027832 13.75 60.375 C16.87352227 61.37965729 19.99904853 62.37792927 23.125 63.375 C24.01445313 63.66117188 24.90390625 63.94734375 25.8203125 64.2421875 C27.09648438 64.64824219 27.09648438 64.64824219 28.3984375 65.0625 C29.18395996 65.31386719 29.96948242 65.56523438 30.77880859 65.82421875 C32.72992105 66.4647026 32.72992105 66.4647026 34.75 66.375 C34.83097324 64.10475032 34.88917704 61.83367925 34.9375 59.5625 C34.97230469 58.29792969 35.00710937 57.03335938 35.04296875 55.73046875 C35.03908475 52.45177229 35.03908475 52.45177229 33.42578125 50.48828125 C28.18577523 47.00715837 18.13424689 46.55232842 13.75 51.375 Z " fill="#202020" transform="translate(69.25,61.625)"/>
<path d="M0 0 C3.82010273 1.50075464 5.67169777 3.66276681 8 7 C8.69333096 8.65575191 9.36447832 10.32121043 10 12 C11.10408203 10.80890625 11.10408203 10.80890625 12.23046875 9.59375 C13.21546474 8.56184944 14.20117983 7.53063494 15.1875 6.5 C15.67025391 5.97535156 16.15300781 5.45070313 16.65039062 4.91015625 C18.89224546 2.59307139 20.46682517 1.11682801 23.65625 0.41796875 C26.7057904 1.17527128 27.53124253 2.25798347 29.3125 4.8125 C29.82425781 5.52019531 30.33601563 6.22789063 30.86328125 6.95703125 C32 9 32 9 32 12 C33.25160238 10.91851833 34.50120381 9.83472078 35.75 8.75 C36.4821875 8.11578125 37.214375 7.4815625 37.96875 6.828125 C40.11197917 4.96354167 40.11197917 4.96354167 42.25 2.5 C44 1 44 1 45.875 0.9375 C49.01673506 2.50836753 51.37226396 4.67087033 54 7 C54.4125 6.484375 54.825 5.96875 55.25 5.4375 C55.8275 4.963125 56.405 4.48875 57 4 C59.1875 4.3125 59.1875 4.3125 61 5 C59.125 9.75 59.125 9.75 58 12 C57.91332745 14.62627133 57.88439865 17.22562483 57.90234375 19.8515625 C57.9037587 20.62559418 57.90517365 21.39962585 57.90663147 22.19711304 C57.91223597 24.67311442 57.92478917 27.14902588 57.9375 29.625 C57.94251442 31.30208203 57.94707743 32.97916547 57.95117188 34.65625 C57.96220685 38.77086806 57.97947446 42.88541878 58 47 C59.65 47.33 61.3 47.66 63 48 C60.93778366 52.55911553 58.05052964 56.04648881 54 59 C50.75 59.1875 50.75 59.1875 48 58 C43.77671633 53.63108586 43.83520223 48.92485285 43.75390625 43.15625 C43.7209798 41.5846296 43.68776796 40.01301515 43.65429688 38.44140625 C43.60681636 35.96602307 43.56235235 33.4906661 43.52319336 31.01513672 C43.48351449 28.62442546 43.43197521 26.23419622 43.37890625 23.84375 C43.3704921 23.10306274 43.36207794 22.36237549 43.35340881 21.59924316 C43.26372758 17.87653569 43.11713572 16.17570359 41 13 C38.09889179 14.30049678 35.93199049 15.44757077 34 18 C33.53561206 21.04929015 33.53561206 21.04929015 33.6015625 24.53125 C33.59769531 25.81644531 33.59382813 27.10164063 33.58984375 28.42578125 C33.59612793 29.09432129 33.60241211 29.76286133 33.60888672 30.45166016 C33.62494646 32.4931933 33.60903329 34.53274708 33.58984375 36.57421875 C33.59564453 38.50201172 33.59564453 38.50201172 33.6015625 40.46875 C33.60494629 41.64888672 33.60833008 42.82902344 33.61181641 44.04492188 C33.74291523 47.01558487 33.74291523 47.01558487 35.52490234 48.90820312 C36.01168457 49.26849609 36.4984668 49.62878906 37 50 C35.86822759 53.39531723 34.96687987 54.12550184 32.1875 56.25 C31.50042969 56.79140625 30.81335938 57.3328125 30.10546875 57.890625 C28 59 28 59 26.00390625 58.89453125 C23.48732023 57.77114295 21.77925147 56.29764718 19.75 54.4375 C19.04359375 53.79683594 18.3371875 53.15617187 17.609375 52.49609375 C17.07828125 52.00238281 16.5471875 51.50867188 16 51 C16.48823242 50.49098145 16.97646484 49.98196289 17.47949219 49.45751953 C19.56346651 46.08929771 19.35632122 43.62278237 19.328125 39.6796875 C19.32625183 38.9798172 19.32437866 38.2799469 19.32244873 37.55886841 C19.31574464 36.08460704 19.30186273 34.61036297 19.28125 33.13623047 C19.25001118 30.87580904 19.24026842 28.61608496 19.234375 26.35546875 C19.60064402 19.46922899 19.60064402 19.46922899 18 13 C14.6308717 14.18374778 12.16042279 15.10531333 10 18 C9.53602925 20.93487431 9.53602925 20.93487431 9.6015625 24.27734375 C9.59769531 25.51291016 9.59382813 26.74847656 9.58984375 28.02148438 C9.60144531 29.31376953 9.61304688 30.60605469 9.625 31.9375 C9.61339844 33.22591797 9.60179687 34.51433594 9.58984375 35.84179688 C9.59564453 37.69708008 9.59564453 37.69708008 9.6015625 39.58984375 C9.60494629 40.72284912 9.60833008 41.85585449 9.61181641 43.02319336 C10.04048042 46.31042623 10.99467582 47.46336542 13 50 C11.86822759 53.39531723 10.96687987 54.12550184 8.1875 56.25 C7.15689453 57.06210938 7.15689453 57.06210938 6.10546875 57.890625 C4 59 4 59 1.97265625 58.86328125 C-0.32973696 57.85569927 -1.88755557 56.62086323 -3.75 54.9375 C-4.67039062 54.11572266 -4.67039062 54.11572266 -5.609375 53.27734375 C-6.06828125 52.85582031 -6.5271875 52.43429688 -7 52 C-6.67402832 51.5059668 -6.34805664 51.01193359 -6.01220703 50.50292969 C-4.59895421 47.00831611 -4.75330886 43.6609081 -4.8046875 39.953125 C-4.8075174 39.18192322 -4.81034729 38.41072144 -4.81326294 37.6161499 C-4.82442987 35.16060668 -4.84952771 32.7054324 -4.875 30.25 C-4.88503432 28.58203653 -4.89415939 26.91406732 -4.90234375 25.24609375 C-4.92435775 21.16392103 -4.95886333 17.082023 -5 13 C-6.65 12.67 -8.3 12.34 -10 12 C-9.45991831 8.17723432 -7.93135626 6.72563435 -5 4.3125 C-4.278125 3.71050781 -3.55625 3.10851562 -2.8125 2.48828125 C-2.214375 1.99714844 -1.61625 1.50601563 -1 1 C-0.67 0.67 -0.34 0.34 0 0 Z " fill="#202020" transform="translate(270,80)"/>
<path d="M0 0 C5.58159637 2.55725859 7.87011435 6.37370913 10 12 C11.10408203 10.80890625 11.10408203 10.80890625 12.23046875 9.59375 C13.21546474 8.56184944 14.20117983 7.53063494 15.1875 6.5 C15.67025391 5.97535156 16.15300781 5.45070313 16.65039062 4.91015625 C18.90072044 2.58431201 20.45194866 1.1133068 23.6640625 0.44921875 C26.5416646 1.1277169 27.3959023 1.99254909 29.1875 4.3125 C29.67605469 4.92738281 30.16460938 5.54226562 30.66796875 6.17578125 C31.82047716 7.7541432 32.91591909 9.37387864 34 11 C34.66386719 10.26652344 35.32773437 9.53304687 36.01171875 8.77734375 C36.89472656 7.84019531 37.77773438 6.90304688 38.6875 5.9375 C39.55761719 4.99777344 40.42773438 4.05804688 41.32421875 3.08984375 C44 1 44 1 46.625 1.03125 C50.12075215 2.4571489 52.21081541 4.47027444 55 7 C55.99 6.01 56.98 5.02 58 4 C58.99 4.33 59.98 4.66 61 5 C60.54729351 7.11263028 60.12801231 8.79583771 58.97314453 10.63769531 C57.56278057 14.06134853 57.75423324 17.40579991 57.8046875 21.046875 C57.80893234 22.20367767 57.80893234 22.20367767 57.81326294 23.3838501 C57.82442987 25.83939332 57.84952771 28.2945676 57.875 30.75 C57.88503432 32.41796347 57.89415939 34.08593268 57.90234375 35.75390625 C57.92435775 39.83607897 57.95886333 43.917977 58 48 C59.32 47.67 60.64 47.34 62 47 C62.66 47.99 63.32 48.98 64 50 C62.45519587 51.53880489 60.8884306 53.05558825 59.3125 54.5625 C58.44238281 55.40941406 57.57226562 56.25632813 56.67578125 57.12890625 C54 59 54 59 51.2734375 58.85546875 C47.87339439 57.57607109 46.55255874 56.10486307 44.93945312 52.87939453 C43.76879926 49.29137695 43.68406073 45.91349047 43.65625 42.1796875 C43.6416272 41.43921173 43.62700439 40.69873596 43.61193848 39.93582153 C43.54992814 36.78339375 43.51000725 33.63077823 43.46826172 30.47802734 C43.43453726 28.17003909 43.38944171 25.8624648 43.34375 23.5546875 C43.3384729 22.84214813 43.3331958 22.12960876 43.32775879 21.39547729 C43.25362845 17.72418917 43.09214484 16.13821726 41 13 C38.10072951 14.29967298 35.9411411 15.45767187 34 18 C33.53602925 20.93487431 33.53602925 20.93487431 33.6015625 24.27734375 C33.59769531 25.51291016 33.59382812 26.74847656 33.58984375 28.02148438 C33.60144531 29.31376953 33.61304688 30.60605469 33.625 31.9375 C33.61339844 33.22591797 33.60179687 34.51433594 33.58984375 35.84179688 C33.59564453 37.69708008 33.59564453 37.69708008 33.6015625 39.58984375 C33.60494629 40.72284912 33.60833008 41.85585449 33.61181641 43.02319336 C34.03375869 46.25888032 34.81571368 47.63170147 37 50 C35.6988872 53.9033384 33.10942821 55.9231307 29.796875 58.140625 C28 59 28 59 25.4375 58.625 C22.40986552 56.60657702 19.72787904 54.41068381 17 52 C17.32524658 51.49549316 17.65049316 50.99098633 17.9855957 50.47119141 C19.35368615 47.13838479 19.26710017 44.00358365 19.23046875 40.4609375 C19.23001053 39.73887115 19.22955231 39.01680481 19.2290802 38.27285767 C19.226067 36.75154978 19.21820863 35.23024473 19.20581055 33.70898438 C19.18750935 31.37619146 19.18530131 29.04379485 19.18554688 26.7109375 C19.18063292 25.23176739 19.17480514 23.75259997 19.16796875 22.2734375 C19.16685593 21.57447357 19.1657431 20.87550964 19.16459656 20.15536499 C19.17668767 16.45340123 19.17668767 16.45340123 18 13 C14.60038333 14.45697857 12.35035313 16.13210172 10 19 C9.40309407 21.92335912 9.40309407 21.92335912 9.50390625 25.15625 C9.50326172 26.34347656 9.50261719 27.53070313 9.50195312 28.75390625 C9.53192383 30.60822266 9.53192383 30.60822266 9.5625 32.5 C9.55541016 33.73621094 9.54832031 34.97242188 9.54101562 36.24609375 C9.33786934 43.76135842 9.33786934 43.76135842 13 50 C11.43542435 54.22435427 8.656574 56.49058647 5 59 C1.06915417 59.30237276 -0.93641409 57.36311462 -3.8125 54.9375 C-4.88317154 53.96727525 -5.94846252 52.99093014 -7 52 C-5.125 48.125 -5.125 48.125 -4 47 C-3.91148471 44.40640678 -3.88474055 41.83960309 -3.90234375 39.24609375 C-3.9037587 38.47064713 -3.90517365 37.6952005 -3.90663147 36.89625549 C-3.91224655 34.40996506 -3.92480154 31.9237634 -3.9375 29.4375 C-3.94251306 27.75586067 -3.9470763 26.07421994 -3.95117188 24.39257812 C-3.96222087 20.26168434 -3.97949555 16.13085724 -4 12 C-5.65 12 -7.3 12 -9 12 C-9 9 -9 9 -7.03125 6.73828125 C-5.77828125 5.53751953 -5.77828125 5.53751953 -4.5 4.3125 C-3.6646875 3.50425781 -2.829375 2.69601563 -1.96875 1.86328125 C-1.3190625 1.24839844 -0.669375 0.63351563 0 0 Z " fill="#202020" transform="translate(504,80)"/>
<path d="M0 0 C2.24329595 1.06522705 3.8500068 2.32003319 5.69140625 3.984375 C6.61179687 4.80615234 6.61179687 4.80615234 7.55078125 5.64453125 C8.0096875 6.06605469 8.46859375 6.48757812 8.94140625 6.921875 C8.43536633 9.09061752 7.94156812 10.92155127 6.94140625 12.921875 C4.7463457 30.60856224 4.7463457 30.60856224 6.94140625 47.921875 C9.41467215 46.51812949 11.61079793 45.25248332 13.62890625 43.234375 C14.06203125 42.80125 14.49515625 42.368125 14.94140625 41.921875 C15.60140625 41.921875 16.26140625 41.921875 16.94140625 41.921875 C16.84748792 37.88300495 16.74131133 33.84465724 16.62402344 29.80639648 C16.58586337 28.43408919 16.55098829 27.06168629 16.51953125 25.68920898 C16.47359943 23.7105521 16.41466988 21.73221058 16.35546875 19.75390625 C16.3083374 17.97077026 16.3083374 17.97077026 16.26025391 16.15161133 C16.05411624 12.53090828 16.05411624 12.53090828 13.94140625 7.921875 C16.58140625 5.281875 19.22140625 2.641875 21.94140625 -0.078125 C27.38036418 2.09745817 29.07649902 3.78732307 32.94140625 7.921875 C32.61543457 8.58340576 32.28946289 9.24493652 31.95361328 9.92651367 C30.70697156 13.61562301 30.69083084 17.00429597 30.74609375 20.84765625 C30.75033859 21.96904243 30.75033859 21.96904243 30.75466919 23.11308289 C30.76581156 25.4870138 30.79090463 27.86055925 30.81640625 30.234375 C30.82644376 31.8496039 30.83556826 33.46483876 30.84375 35.08007812 C30.86573136 39.02749094 30.90021968 42.97461774 30.94140625 46.921875 C32.59140625 47.251875 34.24140625 47.581875 35.94140625 47.921875 C35.38313241 51.63275406 33.97700343 53.22138725 31.19140625 55.671875 C30.17820312 56.59226562 30.17820312 56.59226562 29.14453125 57.53125 C26.49074772 59.20633322 25.02639943 59.3132168 21.94140625 58.921875 C17.8722952 56.01536711 17.0376387 52.67221563 15.94140625 47.921875 C15.27753906 48.54835937 14.61367188 49.17484375 13.9296875 49.8203125 C13.04667969 50.63757813 12.16367187 51.45484375 11.25390625 52.296875 C9.94873047 53.51503906 9.94873047 53.51503906 8.6171875 54.7578125 C6.07769518 56.81165009 4.02114759 57.9119418 0.94140625 58.921875 C-2.72539889 56.24609827 -5.11571744 54.04096751 -7.05859375 49.921875 C-7.37786878 46.99467648 -7.54643349 44.26785488 -7.5703125 41.33984375 C-7.5882637 40.52566483 -7.6062149 39.7114859 -7.62471008 38.87263489 C-7.67867585 36.28493348 -7.712664 33.69741507 -7.74609375 31.109375 C-7.77927903 29.34958399 -7.81376981 27.58981708 -7.84960938 25.83007812 C-7.93439417 21.52747607 -8.0012704 17.22492699 -8.05859375 12.921875 C-9.37859375 12.591875 -10.69859375 12.261875 -12.05859375 11.921875 C-11.52827764 7.94000996 -9.68102927 6.23688683 -6.74609375 3.609375 C-5.57626953 2.53236328 -5.57626953 2.53236328 -4.3828125 1.43359375 C-2.05859375 -0.078125 -2.05859375 -0.078125 0 0 Z " fill="#202020" transform="translate(455.05859375,80.078125)"/>
<path d="M0 0 C2.53632086 0.79384065 5.0604043 1.60250501 7.5703125 2.4765625 C10.36439317 3.07850271 12.26131425 2.73096595 15 2 C13.125 7.75 13.125 7.75 12 10 C11.91332745 12.62627133 11.88439865 15.22562483 11.90234375 17.8515625 C11.90446617 19.01261002 11.90446617 19.01261002 11.90663147 20.19711304 C11.91223597 22.67311442 11.92478917 25.14902588 11.9375 27.625 C11.94251442 29.30208203 11.94707743 30.97916547 11.95117188 32.65625 C11.96220685 36.77086806 11.97947446 40.88541878 12 45 C13.65 45.66 15.3 46.32 17 47 C15.0039331 51.52310726 12.063245 54.25599039 8 57 C5.3125 57.75 5.3125 57.75 3 57 C0.44754682 54.03363549 -0.90817396 52.05599941 -1.25 48.125 C-1.1675 47.42375 -1.085 46.7225 -1 46 C-5.51636172 48.82272608 -9.25212184 51.98851224 -13.0703125 55.70703125 C-15 57 -15 57 -17.04296875 56.9140625 C-19.40415702 55.81123205 -20.55313914 54.58339351 -22.1875 52.5625 C-22.69667969 51.94503906 -23.20585937 51.32757813 -23.73046875 50.69140625 C-26.8989543 46.47000858 -26.39371879 42.08917997 -26 37 C-25.01120795 31.82141115 -23.40384685 28.19029589 -19.75 24.375 C-17.17895143 21.59502676 -17.17895143 21.59502676 -16.9375 17.6875 C-17.288125 16.470625 -17.63875 15.25375 -18 14 C-18.25007812 13.12085937 -18.50015625 12.24171875 -18.7578125 11.3359375 C-19.47088051 8.8782759 -20.22029345 6.43719594 -21 4 C-20.11248047 3.83564453 -20.11248047 3.83564453 -19.20703125 3.66796875 C-14.04387287 2.64941962 -14.04387287 2.64941962 -9.375 0.3125 C-5.8850465 -1.61615851 -3.85044351 -0.88370835 0 0 Z M-15 8 C-14.19378778 12.68900443 -13.42168208 16.68846626 -9.83203125 20 C-6.19452432 22.72908711 -6.19452432 22.72908711 -2 24 C-2 20.04 -2 16.08 -2 12 C-4.3821875 11.01 -4.3821875 11.01 -6.8125 10 C-7.70582031 9.62875 -8.59914062 9.2575 -9.51953125 8.875 C-12.0331433 7.83366763 -12.0331433 7.83366763 -15 8 Z M-13 24 C-15.43661367 29.02551569 -15.9021355 33.31712747 -14.1015625 38.671875 C-13.11824077 41.1406402 -12.09183522 43.57749061 -11 46 C-6.98508368 46 -5.41443499 44.64822063 -2.453125 42.06640625 C0.30541144 38.14364879 -0.48696515 33.57659663 -1 29 C-2.43294498 28.15885829 -3.87154405 27.32734313 -5.3125 26.5 C-6.11300781 26.0359375 -6.91351563 25.571875 -7.73828125 25.09375 C-10.0314118 23.78232114 -10.0314118 23.78232114 -13 24 Z " fill="#202020" transform="translate(240,82)"/>
<path d="M0 0 C2.53632086 0.79384065 5.0604043 1.60250501 7.5703125 2.4765625 C10.36439317 3.07850271 12.26131425 2.73096595 15 2 C13.125 7.75 13.125 7.75 12 10 C11.91332745 12.62627133 11.88439865 15.22562483 11.90234375 17.8515625 C11.90446617 19.01261002 11.90446617 19.01261002 11.90663147 20.19711304 C11.91223597 22.67311442 11.92478917 25.14902588 11.9375 27.625 C11.94251442 29.30208203 11.94707743 30.97916547 11.95117188 32.65625 C11.96220685 36.77086806 11.97947446 40.88541878 12 45 C13.98 45.66 15.96 46.32 18 47 C11.97201292 54.5780409 11.97201292 54.5780409 8 57 C4.875 57.125 4.875 57.125 2 56 C-0.14755185 52.66759196 -1.03618596 49.85525615 -2 46 C-6.29 49.63 -10.58 53.26 -15 57 C-20.63013134 54.74794746 -21.58309228 53.65079107 -25 49 C-27.60322011 41.19033967 -25.66086933 35.19577584 -22.58203125 27.89453125 C-21.21005541 25.3843236 -20.14437384 24.0940509 -18.1875 22.12890625 C-15.52777413 19.09396098 -15.52777413 19.09396098 -16.60546875 15.1328125 C-17.10107005 13.78477697 -17.62963632 12.44848349 -18.1875 11.125 C-18.44853516 10.43664062 -18.70957031 9.74828125 -18.97851562 9.0390625 C-19.62426224 7.34838046 -20.30845633 5.67247176 -21 4 C-20.11248047 3.83564453 -20.11248047 3.83564453 -19.20703125 3.66796875 C-14.04387287 2.64941962 -14.04387287 2.64941962 -9.375 0.3125 C-5.8850465 -1.61615851 -3.85044351 -0.88370835 0 0 Z M-15 7 C-13.66901113 14.68786786 -13.66901113 14.68786786 -9.05859375 20.55859375 C-5.76112447 22.92374751 -5.76112447 22.92374751 -2 24 C-2 20.04 -2 16.08 -2 12 C-6.29 10.35 -10.58 8.7 -15 7 Z M-12 23 C-15.00618666 28.65163092 -15.61854217 32.76009399 -14 39 C-12.83930181 41.81750125 -11.50148533 44.33607441 -10 47 C-8.68677212 46.02180976 -7.37443848 45.0424189 -6.0625 44.0625 C-5.33160156 43.51722656 -4.60070312 42.97195312 -3.84765625 42.41015625 C-2.0865547 41.13092062 -2.0865547 41.13092062 -1 40 C-0.92773498 38.14712498 -0.9161878 36.29166122 -0.9375 34.4375 C-0.958125 32.643125 -0.97875 30.84875 -1 29 C-4.63 27.02 -8.26 25.04 -12 23 Z " fill="#202020" transform="translate(153,82)"/>
<path d="M0 0 C5.66129431 4.69766975 10.85228904 9.74723372 16 15 C14.43343504 18.94373621 11.89233152 21.1514711 8.75 23.9375 C8.25709473 24.38424072 7.76418945 24.83098145 7.25634766 25.29125977 C4.73726543 27.55694073 2.19340041 29.56773192 -0.625 31.4375 C-4.29401703 35.39617627 -3.98169381 39.77358198 -4 45 C-3.23816406 45.14953125 -2.47632813 45.2990625 -1.69140625 45.453125 C0.23530405 45.84461911 2.1528494 46.28233047 4.0625 46.75 C7.02406021 47.30683492 7.02406021 47.30683492 9.1875 45.5625 C9.785625 45.046875 10.38375 44.53125 11 44 C11.99 44 12.98 44 14 44 C14.33 44.99 14.66 45.98 15 47 C12.67308927 49.05405408 10.30991142 51.06126699 7.9375 53.0625 C7.28072266 53.64322266 6.62394531 54.22394531 5.94726562 54.82226562 C2.39148172 57.78249952 0.89836886 59.00996175 -3.875 58.95703125 C-7.00086644 57.99973465 -8.47489258 56.98947857 -11 55 C-13.63239454 53.87474044 -16.29516875 52.94669094 -19 52 C-18.67056396 51.34765381 -18.34112793 50.69530762 -18.00170898 50.02319336 C-16.72538334 46.17119716 -16.85259815 42.62816566 -16.97265625 38.62890625 C-16.98645925 36.98634883 -16.99744013 35.34376571 -17.00585938 33.70117188 C-17.02625692 31.1273949 -17.06262801 28.55860691 -17.1472168 25.98608398 C-17.3142068 20.48278895 -17.32543598 15.3666798 -16 10 C-12.70278619 6.69576586 -9.36439841 5.4522816 -5 4 C-1.98044343 1.82484335 -1.98044343 1.82484335 0 0 Z M-4 13 C-4 17.95 -4 22.9 -4 28 C-1.36 26.02 1.28 24.04 4 22 C2.26684515 18.5336903 1.68895229 17.45222353 -1.125 15.25 C-2.07375 14.5075 -3.0225 13.765 -4 13 Z " fill="#202020" transform="translate(357,80)"/>
<path d="M0 0 C3.31529273 0.98562757 4.74949379 1.65447419 6.8125 4.5 C8 7 8 7 8 9 C8.67546875 8.41089844 9.3509375 7.82179688 10.046875 7.21484375 C10.93890625 6.46332031 11.8309375 5.71179688 12.75 4.9375 C14.07257813 3.80634766 14.07257813 3.80634766 15.421875 2.65234375 C18 1 18 1 20.125 1.03125 C22.41979204 2.21689256 23.63954118 3.54942647 25.25 5.5625 C26.03117187 6.52349609 26.03117187 6.52349609 26.828125 7.50390625 C27.40820312 8.24447266 27.40820312 8.24447266 28 9 C26.1144852 13.28359673 23.64034299 15.15103592 20 18 C16.83884224 16.63016497 16.0072908 16.0109362 14 13 C12.68 13.33 11.36 13.66 10 14 C10 24.56 10 35.12 10 46 C11.32 46.33 12.64 46.66 14 47 C14.66 46.34 15.32 45.68 16 45 C18.625 45.375 18.625 45.375 21 46 C19.71060878 49.86817365 17.8203751 51.11065836 14.6875 53.6875 C13.23923828 54.89986328 13.23923828 54.89986328 11.76171875 56.13671875 C9 58 9 58 5 58 C3 56.7578125 3 56.7578125 1 55.125 C-1.57545907 53.04249989 -3.98557341 51.38609794 -7 50 C-5.125 45.25 -5.125 45.25 -4 43 C-3.9024365 40.84550346 -3.86922873 38.68795346 -3.8671875 36.53125 C-3.86589844 35.23832031 -3.86460937 33.94539063 -3.86328125 32.61328125 C-3.86537598 31.93861816 -3.8674707 31.26395508 -3.86962891 30.56884766 C-3.87497907 28.50806311 -3.86967965 26.44749651 -3.86328125 24.38671875 C-3.86521484 22.44732422 -3.86521484 22.44732422 -3.8671875 20.46875 C-3.86887939 18.68114258 -3.86887939 18.68114258 -3.87060547 16.85742188 C-3.80366104 14.05409934 -3.80366104 14.05409934 -5 12 C-7.52733235 11.34444881 -7.52733235 11.34444881 -10 11 C-8.55218207 7.55571735 -6.72305391 5.63869038 -3.875 3.25 C-3.15054688 2.63640625 -2.42609375 2.0228125 -1.6796875 1.390625 C-0.84824219 0.70226562 -0.84824219 0.70226562 0 0 Z " fill="#202020" transform="translate(183,80)"/>
<path d="M0 0 C3.17210384 1.28635209 5.92343218 3.21291 8.75 5.125 C9.54921875 5.66382812 10.3484375 6.20265625 11.171875 6.7578125 C11.77515625 7.16773437 12.3784375 7.57765625 13 8 C12.23596585 11.47153381 10.91813089 13.99770818 9 17 C2.375 16.25 2.375 16.25 -1 14 C-1.12365029 18.21742593 -1.21435665 22.43389111 -1.2746582 26.65258789 C-1.29979524 28.08734514 -1.33391108 29.52197441 -1.37719727 30.95629883 C-1.43789665 33.0193637 -1.46621353 35.08073615 -1.48828125 37.14453125 C-1.51446533 38.38565674 -1.54064941 39.62678223 -1.56762695 40.90551758 C-1.3132469 44.17003263 -1.3132469 44.17003263 1.37036133 45.9440918 C4.49572276 47.1990531 5.82332285 46.97743912 9 46 C9.763125 45.814375 10.52625 45.62875 11.3125 45.4375 C11.869375 45.293125 12.42625 45.14875 13 45 C13.66 45.99 14.32 46.98 15 48 C12.76175998 49.87018719 10.51136473 51.72065432 8.25 53.5625 C7.61578125 54.09552734 6.9815625 54.62855469 6.328125 55.17773438 C5.709375 55.67724609 5.090625 56.17675781 4.453125 56.69140625 C3.88754883 57.15748291 3.32197266 57.62355957 2.73925781 58.10375977 C1 59 1 59 -1.06347656 58.71435547 C-3.47423832 57.82506035 -5.71429289 56.73671234 -8 55.5625 C-8.845625 55.13066406 -9.69125 54.69882813 -10.5625 54.25390625 C-11.7690625 53.63322266 -11.7690625 53.63322266 -13 53 C-14.33243183 52.33153336 -15.66543325 51.6641941 -17 51 C-16.67201416 50.00742188 -16.34402832 49.01484375 -16.00610352 47.9921875 C-14.87642282 44.02464986 -14.80257818 40.22523549 -14.90234375 36.125 C-14.90640612 34.63021258 -14.90829325 33.13541794 -14.90820312 31.640625 C-14.91630992 29.31569585 -14.93764745 26.99416081 -14.99633789 24.66992188 C-15.2915877 11.67343726 -15.2915877 11.67343726 -12.03295898 7.45141602 C-9.76071144 5.67839698 -7.55865902 4.31380669 -5 3 C-4.071875 2.319375 -3.14375 1.63875 -2.1875 0.9375 C-1.465625 0.628125 -0.74375 0.31875 0 0 Z " fill="#202020" transform="translate(397,80)"/>
<path d="M0 0 C4.03744506 2.01872253 6.62010675 4.08100128 10 7 C9.67854004 7.65250732 9.35708008 8.30501465 9.02587891 8.97729492 C7.73388382 12.78409911 7.64623647 16.3873605 7.5859375 20.36328125 C7.56657135 21.15526413 7.5472052 21.94724701 7.5272522 22.76322937 C7.46772768 25.27954519 7.42118042 27.79590744 7.375 30.3125 C7.33679519 32.0241079 7.29774201 33.73569709 7.2578125 35.44726562 C7.1620487 39.63135749 7.0779182 43.81553931 7 48 C9.97 47.505 9.97 47.505 13 47 C13 50 13 50 11.20703125 52.04296875 C10.41683594 52.75066406 9.62664062 53.45835937 8.8125 54.1875 C7.64654297 55.26064453 7.64654297 55.26064453 6.45703125 56.35546875 C3.64380388 58.23840789 2.31535118 58.4981329 -1 58 C-3.79035429 55.7522146 -4.85910005 54.42269984 -6 51 C-6.14265761 48.03838381 -6.23357417 45.09610564 -6.28125 42.1328125 C-6.29965942 41.26107391 -6.31806885 40.38933533 -6.33703613 39.49118042 C-6.39577821 36.70252212 -6.448578 33.9138023 -6.5 31.125 C-6.5678201 27.46081289 -6.64154291 23.79681244 -6.71875 20.1328125 C-6.73232544 19.29307892 -6.74590088 18.45334534 -6.7598877 17.58816528 C-6.84403988 13.60761508 -7.02824795 9.88602465 -8 6 C-5.36 4.02 -2.72 2.04 0 0 Z " fill="#202020" transform="translate(426,81)"/>
<path d="M0 0 C2.64 0 5.28 0 8 0 C6.51222697 3.25964342 4.64333184 5.93169293 2.4375 8.75 C1.50744141 9.94882813 1.50744141 9.94882813 0.55859375 11.171875 C0.04425781 11.77515625 -0.47007812 12.3784375 -1 13 C-1.33 13 -1.66 13 -2 13 C-1.85915204 11.20793453 -1.71216299 9.41635083 -1.5625 7.625 C-1.48128906 6.62726563 -1.40007812 5.62953125 -1.31640625 4.6015625 C-1 2 -1 2 0 0 Z " fill="#1E1E1E" transform="translate(430,63)"/>
</svg>
